<?xml version="1.0" standalone="no"?>
<!DOCTYPE svg PUBLIC "-//W3C//DTD SVG 20010904//EN"
 "http://www.w3.org/TR/2001/REC-SVG-20010904/DTD/svg10.dtd">
<svg version="1.0" xmlns="http://www.w3.org/2000/svg"
 width="842.000000pt" height="1280.000000pt" viewBox="0 0 842.000000 1280.000000"
 preserveAspectRatio="xMidYMid meet">
<g transform="translate(0.000000,1280.000000) scale(0.100000,-0.100000)"
fill="#000000" stroke="none">
<path d="M3269 12790 c-283 -33 -555 -207 -718 -459 -22 -35 -41 -71 -41 -79
0 -8 -11 -34 -24 -57 -24 -41 -52 -147 -77 -291 -16 -100 -7 -278 21 -390 13
-50 20 -98 17 -108 -11 -27 -56 -38 -172 -39 -108 -2 -109 -2 -117 23 -55 190
-124 338 -201 429 -172 205 -431 335 -693 348 -179 9 -365 -28 -524 -104 -62
-30 -97 -58 -199 -157 -131 -129 -172 -184 -232 -311 -32 -70 -48 -123 -91
-308 -10 -42 -26 -52 -98 -62 -51 -6 -107 -36 -117 -62 -9 -24 30 -51 85 -58
128 -16 129 -17 151 -134 15 -75 77 -225 118 -283 15 -22 38 -59 51 -82 53
-93 214 -228 358 -297 117 -56 294 -92 413 -83 245 18 348 47 518 147 108 64
171 114 209 167 107 146 130 182 160 246 43 92 82 227 90 312 9 94 20 108 96
121 93 15 240 25 281 17 25 -5 56 -27 108 -77 157 -152 326 -261 459 -299 41
-12 97 -28 125 -36 58 -16 125 -18 176 -4 37 10 118 93 152 155 37 68 77 169
86 220 16 84 24 95 75 95 28 0 52 7 69 20 19 15 40 20 84 20 76 0 182 -49 235
-108 l38 -42 -6 -102 c-8 -130 7 -254 32 -273 15 -10 20 -33 25 -107 9 -121
-8 -929 -21 -988 -6 -25 -12 -223 -15 -440 -2 -217 -7 -465 -11 -550 -4 -85
-8 -321 -9 -525 -3 -362 -26 -1662 -45 -2464 -7 -311 -12 -406 -22 -413 -7 -5
-40 -16 -72 -25 -38 -11 -71 -29 -90 -48 l-31 -31 8 -194 c4 -107 7 -233 5
-278 -4 -103 -7 -106 -151 -155 -292 -100 -518 -238 -670 -408 -79 -89 -113
-151 -149 -274 l-33 -110 -2 -1188 c0 -653 -4 -1194 -6 -1201 -3 -8 -32 -20
-64 -26 -71 -15 -109 -34 -192 -95 -88 -65 -156 -138 -178 -190 -10 -25 -28
-49 -41 -54 -13 -6 -60 -11 -106 -11 -159 0 -250 -30 -283 -93 -16 -31 -29
-108 -39 -235 -7 -76 4 -92 80 -121 99 -37 166 -45 361 -46 l190 0 78 -38 c43
-21 108 -60 145 -86 37 -27 105 -64 152 -83 130 -53 329 -133 385 -156 105
-42 254 -83 385 -106 315 -57 494 -74 580 -56 30 7 107 16 170 20 128 9 378
53 419 75 15 7 56 18 91 25 134 23 366 96 449 140 20 11 95 48 166 83 72 36
147 75 167 88 20 13 60 38 89 54 28 17 64 37 78 45 22 12 69 15 281 12 289 -3
312 1 353 67 17 29 22 51 21 111 0 159 -57 220 -219 234 -136 13 -129 9 -166
83 -44 88 -106 171 -155 209 -45 35 -216 134 -232 134 -32 0 -36 106 -47 1500
-3 382 -10 751 -16 820 -10 139 -47 317 -77 376 -11 22 -23 53 -26 70 -7 33
-131 181 -192 230 -94 74 -186 117 -434 203 -150 52 -165 59 -176 83 -7 12
-19 137 -27 276 -12 192 -19 259 -31 277 -8 13 -49 47 -90 75 -41 28 -78 59
-81 68 -17 41 -55 2561 -64 4181 l-6 1246 32 38 c32 36 33 40 33 130 1 109 12
173 33 195 14 14 22 11 84 -24 37 -21 73 -50 80 -64 8 -16 13 -69 13 -145 1
-187 27 -358 74 -493 43 -124 165 -369 208 -418 37 -42 98 -73 143 -74 44 0
221 90 314 161 141 106 281 257 281 304 0 9 16 47 35 85 19 38 47 109 62 157
24 81 27 102 27 268 1 171 0 184 -26 263 -49 147 -38 166 103 182 111 13 335
13 359 0 11 -6 22 -26 25 -48 13 -77 59 -230 90 -299 60 -131 208 -310 317
-384 101 -69 275 -147 379 -170 80 -18 114 -20 224 -15 251 11 387 58 581 201
100 75 151 140 239 308 124 238 156 403 120 625 -19 119 -41 183 -105 305
-142 274 -406 470 -699 518 -74 12 -314 12 -382 -1 -30 -5 -76 -21 -104 -34
-27 -14 -81 -39 -119 -56 -91 -40 -182 -109 -287 -217 -68 -69 -98 -110 -141
-193 -57 -106 -108 -264 -108 -332 0 -66 -13 -72 -162 -80 -73 -3 -209 -11
-303 -17 -93 -6 -323 -15 -510 -21 -187 -5 -367 -12 -400 -15 -41 -4 -65 -2
-77 7 -16 12 -16 17 2 80 41 149 144 268 230 268 91 0 233 -72 360 -184 95
-84 140 -112 164 -103 25 10 19 36 -20 84 -40 49 -177 172 -240 216 -45 30
-181 73 -265 82 l-54 6 -67 -61 c-60 -54 -76 -77 -133 -191 -36 -72 -65 -141
-65 -153 0 -33 -31 -56 -74 -56 -43 0 -82 34 -126 108 -16 28 -39 49 -67 63
-30 15 -45 29 -49 47 -18 85 -64 133 -151 158 -58 17 -146 14 -184 -6 -20 -11
-39 -67 -39 -120 0 -46 -9 -58 -51 -70 -58 -17 -101 -11 -159 20 -141 77 -253
130 -276 130 -23 0 -24 3 -24 68 0 76 -26 357 -34 370 -3 5 -16 72 -30 150
-31 183 -82 295 -177 390 -70 69 -68 68 -210 52z m-109 -140 c0 -10 -18 -47
-39 -80 -48 -75 -83 -178 -111 -330 -12 -63 -25 -131 -31 -151 -14 -54 -11
-275 6 -450 22 -234 21 -230 110 -464 27 -70 64 -139 111 -204 13 -19 24 -38
24 -44 0 -15 -73 0 -159 33 -259 100 -490 356 -556 617 -9 37 -22 78 -27 90
-14 29 -5 194 17 303 33 162 143 365 242 447 25 21 64 54 86 74 43 37 208 141
262 165 44 19 65 17 65 -6z m394 -285 c17 -26 29 -72 47 -185 6 -41 16 -100
21 -130 10 -66 10 -35 4 -325 -3 -186 -9 -265 -25 -350 -33 -175 -65 -280
-104 -339 -38 -57 -93 -106 -119 -106 -28 0 -160 153 -173 200 -3 14 -28 79
-53 145 l-47 120 1 235 c1 174 5 245 15 275 14 38 17 40 55 39 28 0 73 -17
150 -56 116 -59 176 -80 200 -71 24 9 15 48 -19 81 -41 39 -257 155 -330 176
-61 18 -90 44 -85 78 2 19 8 22 33 19 77 -9 77 -9 121 55 45 63 163 160 212
173 36 10 77 -5 96 -34z m4091 -80 c140 -30 232 -77 340 -173 171 -155 298
-388 324 -595 11 -94 3 -200 -24 -312 -34 -138 -177 -367 -281 -451 -122 -97
-285 -170 -437 -195 -73 -12 -203 -11 -268 1 -32 6 -57 5 -78 -3 -52 -19 -151
37 -317 181 -161 140 -237 253 -304 450 -53 157 -50 349 9 525 39 115 71 173
142 262 129 159 281 254 504 312 75 19 108 22 200 19 61 -2 146 -12 190 -21z
m-6368 -226 c214 -29 355 -90 491 -212 169 -151 256 -316 285 -539 39 -303
-122 -661 -377 -842 -81 -57 -122 -78 -236 -115 -174 -56 -334 -58 -505 -6
-151 46 -343 179 -423 292 -26 36 -61 82 -78 102 -42 48 -60 94 -85 215 -29
142 -29 329 0 451 35 145 120 285 256 420 106 106 262 204 328 205 12 1 45 9
72 20 58 21 157 25 272 9z m3218 -354 c14 -13 25 -29 25 -35 0 -19 -53 -31
-129 -28 -66 3 -76 5 -76 22 0 24 78 66 123 66 22 0 41 -8 57 -25z m-682 -91
c83 -42 201 -117 212 -134 16 -26 -21 -42 -101 -45 -44 -1 -109 -6 -146 -10
l-68 -7 0 104 c0 92 8 128 27 128 2 0 36 -16 76 -36z m732 -78 c123 -32 171
-87 103 -117 -25 -11 -34 -21 -36 -44 -5 -47 -24 -55 -89 -38 -40 10 -97 14
-204 11 -144 -3 -148 -2 -173 21 -70 66 5 154 154 182 57 10 179 3 245 -15z
m1245 -199 c28 -10 38 -21 53 -62 98 -261 101 -500 9 -713 -77 -177 -191 -313
-347 -417 -89 -59 -210 -115 -249 -115 -27 0 -63 41 -51 60 3 5 39 25 79 44
41 18 102 53 137 77 73 49 220 187 236 221 45 96 88 201 99 243 18 67 19 211
1 218 -23 9 -34 -6 -40 -58 -16 -118 -105 -337 -140 -343 -10 -2 -30 -1 -43 2
-23 6 -25 10 -19 49 6 47 -5 73 -28 64 -8 -3 -47 -44 -86 -91 -126 -150 -264
-251 -311 -226 -23 12 -64 86 -57 104 3 7 25 18 48 25 84 24 186 97 214 151
15 28 11 40 -11 40 -6 0 -38 -20 -71 -44 -115 -86 -194 -109 -201 -58 -2 14 2
22 10 22 17 0 68 51 68 67 0 17 -21 21 -55 11 -49 -13 -54 -10 -69 45 -16 55
-43 344 -33 354 3 3 27 7 52 9 57 4 65 9 65 39 0 27 -29 51 -177 150 -57 37
-103 74 -103 80 0 15 45 28 70 20 10 -3 23 -19 30 -35 17 -40 36 -38 79 9 35
38 38 39 121 45 72 6 471 21 635 24 28 0 66 -4 85 -11z m-1358 -76 c4 -4 3
-47 -3 -96 -5 -50 -7 -113 -3 -141 5 -46 4 -53 -17 -68 -24 -17 -133 -23 -155
-8 -22 14 -31 78 -26 180 4 97 6 104 33 126 25 21 35 23 96 19 37 -3 71 -8 75
-12z m121 -71 c9 -62 6 -245 -5 -255 -4 -4 -14 -5 -23 -2 -13 5 -15 31 -15
162 0 143 1 156 17 153 13 -2 20 -18 26 -58z m-86 -363 l22 -12 5 -520 c4
-286 9 -771 12 -1078 3 -307 3 -578 -1 -603 -7 -52 -30 -59 -39 -11 -14 79
-27 501 -25 817 2 424 -18 1311 -31 1324 -27 27 -30 -70 -30 -947 -1 -901 -7
-1154 -29 -1196 -10 -19 -19 -22 -59 -19 l-47 3 -5 50 c-5 47 2 365 29 1315
19 653 28 845 40 868 10 19 20 22 74 22 34 0 72 -6 84 -13z m1043 -420 c0 -25
-46 -59 -76 -55 -35 4 -45 35 -18 55 24 17 94 17 94 0z m-1160 -1954 c5 -4 4
-224 -2 -488 -6 -264 -11 -898 -13 -1410 -2 -565 -7 -978 -14 -1052 -6 -66 -8
-135 -5 -152 4 -17 3 -51 -1 -77 l-7 -47 -70 5 c-86 7 -94 13 -80 70 7 27 15
290 21 688 11 664 25 1390 41 2053 10 434 10 434 82 424 22 -3 44 -9 48 -14z
m154 0 c4 -10 11 -323 16 -698 26 -1877 31 -2449 26 -2480 -8 -38 -29 -51 -48
-28 -16 20 -22 274 -38 1878 -10 934 -10 1205 -1 1259 7 39 15 74 17 78 8 13
21 9 28 -9z m228 -3240 c59 -53 -20 -96 -236 -128 -127 -19 -181 -19 -330 1
-129 18 -169 31 -187 66 -10 19 -8 25 15 45 36 31 76 29 139 -7 128 -72 390
-62 493 19 32 25 80 27 106 4z m31 -244 c5 -41 6 -135 3 -209 -5 -115 -9 -137
-25 -154 -16 -16 -23 -17 -35 -7 -52 43 -45 371 9 431 10 11 23 19 29 17 6 -2
15 -37 19 -78z m-716 60 c49 -18 193 -31 334 -30 161 1 164 0 154 -83 -4 -31
-10 -56 -13 -56 -3 0 -21 12 -40 26 -32 25 -39 26 -110 20 -89 -7 -128 -27
-160 -82 -43 -74 -12 -200 59 -237 44 -23 174 -19 213 6 33 22 53 21 66 -2 17
-32 12 -61 -12 -70 -13 -5 -79 -13 -148 -19 -122 -9 -129 -9 -253 21 -108 25
-131 34 -144 54 -14 20 -18 62 -21 219 -4 168 -2 197 12 219 19 28 23 29 63
14z m372 -235 c25 -32 27 -71 5 -102 -22 -32 -86 -31 -119 3 -34 33 -32 67 6
99 40 34 81 34 108 0z m661 -310 c154 -49 224 -83 308 -155 79 -66 178 -179
219 -249 15 -25 38 -83 50 -130 l24 -85 9 -920 c5 -506 10 -1115 12 -1353 l3
-433 -53 -50 c-49 -47 -82 -60 -73 -28 2 8 6 190 8 404 2 215 7 660 11 990 4
330 3 679 -2 775 -4 96 -7 193 -5 215 5 73 2 138 -13 275 -14 120 -21 148 -64
250 -44 106 -53 121 -123 190 -42 41 -101 90 -132 108 -88 51 -261 123 -289
120 -40 -5 -29 -31 25 -58 77 -39 245 -162 295 -216 72 -78 98 -115 131 -195
59 -139 57 -167 -16 -241 -55 -56 -83 -50 -48 10 15 26 15 35 4 72 -15 51 -62
103 -85 94 -11 -4 -16 -19 -16 -48 0 -36 -4 -44 -30 -59 -31 -19 -39 -40 -19
-53 6 -3 20 -27 31 -52 17 -37 22 -81 30 -246 11 -229 5 -543 -11 -559 -13
-13 -42 11 -82 70 l-29 42 0 249 c0 243 -4 312 -20 312 -18 0 -32 -76 -41
-235 -13 -201 -15 -215 -35 -215 -8 0 -44 22 -80 50 -63 49 -296 170 -326 170
-9 0 -33 8 -54 17 -33 15 -70 18 -229 18 -178 0 -195 -2 -277 -27 -305 -94
-536 -282 -677 -549 -67 -127 -96 -228 -112 -382 -10 -103 -10 -145 0 -224 16
-122 43 -230 77 -302 39 -87 165 -270 242 -352 62 -66 83 -81 203 -141 74 -37
177 -80 229 -95 90 -27 105 -28 300 -28 l205 0 113 42 c184 67 419 224 495
330 56 77 73 96 84 90 5 -4 13 -82 16 -180 7 -168 18 -237 39 -237 6 0 9 107
7 298 -3 290 -3 298 20 347 32 72 44 84 52 54 9 -31 9 -977 1 -1007 -11 -36
-192 -140 -307 -175 -72 -22 -251 -64 -375 -88 -25 -5 -160 -11 -300 -15 -242
-6 -264 -5 -440 20 -236 34 -377 70 -530 136 -36 15 -85 36 -110 46 -25 11
-63 33 -85 49 -22 17 -53 39 -70 49 -16 11 -65 49 -107 85 l-77 66 -1 305 c-1
168 -5 361 -9 430 -4 68 -3 176 1 240 10 147 11 372 3 1005 -6 559 -1 654 49
810 50 159 148 277 289 350 39 21 93 51 119 67 60 38 181 85 278 108 41 10 90
23 109 29 25 8 42 7 75 -5 22 -9 66 -19 97 -24 31 -4 74 -14 95 -21 28 -10 93
-14 239 -13 227 1 356 21 475 75 81 37 118 34 280 -17z m404 -850 c14 -37 5
-63 -35 -98 -73 -67 -100 -20 -39 69 32 46 63 58 74 29z m-71 -715 c2 -391 -2
-474 -24 -452 -5 5 -12 135 -15 289 -3 153 -10 295 -14 315 -9 45 6 233 21
261 7 12 14 17 20 11 5 -5 10 -187 12 -424z m-827 291 c101 -34 281 -131 346
-186 111 -94 201 -207 262 -328 79 -155 91 -208 90 -391 -1 -129 -4 -164 -27
-250 -28 -105 -94 -253 -149 -333 -148 -217 -419 -371 -698 -397 -87 -8 -240
8 -332 34 -96 28 -275 123 -345 183 -119 102 -220 241 -273 377 -28 72 -62
230 -67 313 -7 106 41 327 102 463 56 127 180 272 315 369 74 53 231 125 308
141 35 8 67 16 70 19 3 3 80 6 172 6 141 0 176 -3 226 -20z m1358 -1950 c76
-37 114 -61 140 -92 41 -47 106 -170 106 -199 0 -28 36 -59 68 -59 43 0 60
-15 45 -40 -19 -29 -16 -58 6 -70 29 -15 39 -13 57 15 15 23 15 27 0 50 -22
34 -21 35 24 35 114 0 197 -99 124 -146 -22 -15 -51 -17 -203 -15 -160 2 -184
0 -245 -20 -39 -13 -84 -37 -109 -58 -151 -130 -344 -236 -655 -357 -339 -132
-956 -223 -1312 -195 -166 13 -234 28 -464 97 -159 49 -213 71 -441 185 -365
181 -344 169 -467 267 -23 18 -55 40 -71 49 -31 16 -169 32 -274 33 -170 0
-276 68 -212 136 38 41 117 63 265 74 75 6 140 13 145 16 4 2 23 33 41 67 37
70 156 195 215 225 21 11 58 25 82 32 57 15 68 4 79 -77 7 -51 16 -70 48 -108
21 -26 53 -66 70 -90 54 -77 255 -217 333 -231 20 -4 88 -26 152 -50 252 -94
469 -128 819 -128 182 -1 255 4 380 22 256 37 341 59 500 127 47 21 114 48
148 61 35 14 83 37 105 53 23 15 71 43 107 62 125 65 260 226 260 309 0 29 15
70 25 70 2 0 51 -22 109 -50z m-3809 -582 c52 -18 76 -20 179 -15 118 5 181
-4 173 -27 -6 -18 -95 -24 -227 -15 -169 12 -186 16 -209 46 -23 28 -18 48 8
38 9 -4 43 -16 76 -27z m4339 -28 c18 -18 -46 -30 -152 -30 -101 1 -186 11
-198 23 -3 3 -3 11 1 17 8 13 335 4 349 -10z"/>
<path d="M2787 12242 c-22 -24 -21 -65 1 -85 36 -32 76 -19 92 30 10 29 9 37
-6 54 -22 24 -66 25 -87 1z"/>
<path d="M7417 11453 c-12 -11 -8 -40 7 -52 28 -23 68 17 45 45 -12 15 -41 19
-52 7z"/>
<path d="M8136 11423 c-3 -10 -12 -51 -21 -90 -16 -77 -108 -274 -164 -350
-47 -64 -94 -59 -109 12 -5 26 -14 41 -26 43 -29 6 -135 -38 -188 -79 -47 -35
-56 -38 -146 -44 -71 -6 -122 -3 -200 9 -57 10 -107 15 -110 11 -3 -3 -1 -23
4 -43 19 -70 10 -73 -99 -41 -67 20 -77 27 -154 106 -85 88 -113 100 -113 48
0 -18 27 -53 97 -128 54 -56 103 -105 109 -109 6 -4 33 -12 60 -18 27 -6 85
-28 129 -48 75 -35 85 -37 175 -36 52 1 124 9 160 18 36 9 84 16 106 16 42 0
161 58 244 117 47 34 187 179 215 223 52 83 92 291 71 375 -7 29 -32 34 -40 8z"/>
<path d="M7505 11275 c-22 -14 -50 -25 -63 -25 -55 0 -81 -39 -41 -61 61 -32
207 51 169 96 -16 19 -17 19 -65 -10z"/>
<path d="M7731 11215 c-41 -42 -92 -87 -115 -100 -55 -32 -161 -65 -213 -65
-50 0 -73 -8 -73 -25 0 -19 24 -25 100 -25 52 0 87 7 150 31 70 27 92 42 160
108 77 75 102 113 93 139 -10 23 -29 11 -102 -63z"/>
<path d="M7893 11160 c-30 -28 -38 -59 -20 -78 14 -13 19 -12 46 16 55 55 30
114 -26 62z"/>
<path d="M1110 12010 c-19 -4 -62 -13 -95 -20 -166 -34 -302 -101 -370 -183
-104 -125 -217 -298 -240 -368 -9 -26 -15 -65 -13 -86 l3 -38 60 -3 c70 -4
159 12 218 38 23 10 71 47 107 82 36 35 92 82 125 105 131 88 176 101 385 110
151 6 232 -10 335 -66 38 -21 93 -46 120 -57 32 -12 71 -39 109 -76 49 -49 64
-58 94 -58 l35 0 -7 58 c-12 115 -146 324 -249 389 -23 14 -66 42 -95 61 -71
47 -157 76 -295 101 -121 22 -168 24 -227 11z"/>
<path d="M1675 11333 c-27 -1 -79 -7 -115 -12 -36 -6 -157 -15 -270 -21 -264
-14 -369 -25 -505 -56 -60 -14 -157 -29 -215 -34 -213 -18 -221 -22 -202 -103
49 -218 43 -203 101 -262 52 -53 74 -65 86 -46 3 5 10 45 15 88 5 43 17 109
26 147 15 61 20 70 49 82 50 21 193 35 390 38 100 2 190 8 201 14 18 9 204 28
519 52 152 12 189 20 193 44 2 10 -9 31 -24 47 -27 28 -31 29 -113 27 -47 -1
-108 -3 -136 -5z"/>
<path d="M3460 4213 c-243 -162 -321 -264 -342 -443 -7 -66 -8 -258 -2 -625 5
-291 5 -564 1 -605 -5 -45 -4 -113 3 -169 6 -52 13 -247 17 -432 3 -186 10
-344 14 -351 6 -10 11 -10 20 -1 10 10 14 275 19 1145 l6 1133 27 56 c30 65
117 151 236 234 68 47 91 71 91 91 0 14 -43 -1 -90 -33z"/>
<path d="M5020 4198 c0 -8 23 -36 51 -63 52 -50 109 -129 109 -150 0 -20 -51
-36 -161 -51 -111 -14 -159 -27 -159 -43 0 -25 121 -27 212 -2 80 22 112 41
138 84 47 76 15 140 -97 193 -43 21 -81 40 -85 42 -5 2 -8 -3 -8 -10z"/>
<path d="M4255 3146 c-44 -7 -90 -18 -101 -24 -10 -5 -48 -18 -83 -27 -107
-27 -276 -135 -349 -221 -128 -151 -147 -182 -191 -303 -35 -96 -61 -229 -61
-311 0 -87 27 -230 54 -285 14 -27 34 -72 46 -100 88 -207 273 -358 541 -441
75 -24 100 -27 239 -27 143 0 161 2 234 27 138 47 258 123 391 248 56 52 68
70 118 185 65 149 92 247 107 395 13 122 3 222 -29 285 -11 21 -28 61 -39 89
-57 153 -230 329 -423 433 -134 72 -304 101 -454 77z m190 -106 c0 -29 -32
-41 -41 -16 -9 24 4 48 23 44 12 -2 18 -12 18 -28z m-129 5 c4 -8 3 -23 -1
-32 -6 -17 -7 -17 -21 1 -8 11 -14 26 -14 33 0 18 29 16 36 -2z m234 -31 c0
-26 -17 -33 -26 -9 -8 20 3 48 16 40 5 -3 10 -17 10 -31z m-340 5 c0 -24 -23
-21 -28 4 -2 10 3 17 12 17 10 0 16 -9 16 -21z m446 -24 c6 -16 -12 -45 -27
-45 -10 0 -12 44 -2 53 11 11 23 8 29 -8z m-553 -1 c11 -11 -5 -34 -24 -34
-12 0 -19 7 -19 20 0 19 28 28 43 14z m668 -53 c20 -16 21 -21 10 -35 -28 -33
-79 -7 -66 34 8 25 26 26 56 1z m-793 -12 c4 -19 -27 -34 -41 -20 -14 14 0 43
20 39 10 -2 19 -10 21 -19z m313 -19 c10 -6 19 -17 19 -24 0 -16 -50 -36 -90
-36 -30 0 -176 -68 -224 -105 -40 -31 -86 -34 -86 -6 0 40 135 129 229 150 21
4 46 13 57 19 24 14 70 15 95 2z m244 -15 c129 -48 264 -144 252 -179 -8 -23
-47 -16 -94 17 -67 48 -159 93 -228 111 -68 17 -79 27 -70 55 9 29 57 28 140
-4z m-675 -39 c0 -8 -4 -17 -8 -20 -13 -8 -35 11 -28 23 10 16 36 14 36 -3z
m1014 -3 c8 -20 -19 -44 -40 -36 -14 5 -19 35 -7 46 12 13 41 7 47 -10z m-569
-235 c-8 -195 -22 -258 -67 -289 -28 -20 -49 -23 -196 -31 -193 -9 -215 -4
-220 52 -2 25 9 60 38 118 42 88 106 162 190 219 67 45 180 92 223 93 l39 0
-7 -162z m655 132 c0 -25 -4 -30 -24 -30 -28 0 -42 26 -25 46 6 8 20 14 30 14
14 0 19 -7 19 -30z m-1190 2 c0 -25 -45 -66 -64 -59 -21 8 -20 19 5 51 24 30
59 35 59 8z m746 -23 c95 -29 153 -61 195 -106 103 -110 143 -222 137 -391 -3
-99 -6 -113 -39 -182 -67 -139 -178 -245 -297 -284 -72 -23 -201 -37 -247 -25
-22 5 -57 11 -78 14 -52 5 -155 73 -243 160 -61 60 -74 80 -93 137 -13 39 -21
84 -19 110 l3 43 65 6 c101 10 286 10 312 0 13 -5 30 -20 37 -34 31 -58 110
-56 170 4 39 39 114 42 158 5 31 -26 86 -56 103 -56 18 0 11 38 -15 76 -31 45
-31 55 -2 105 19 34 20 41 7 49 -21 13 -49 3 -85 -30 -66 -61 -100 -64 -155
-14 l-40 36 0 180 c0 104 4 187 10 199 14 24 32 24 116 -2z m-636 -66 c0 -8
-22 -48 -49 -90 -37 -56 -54 -93 -66 -151 -21 -94 -30 -112 -55 -112 -17 0
-20 7 -20 43 1 108 75 280 139 320 28 17 51 12 51 -10z m994 -24 c46 -39 95
-166 103 -262 6 -63 5 -69 -12 -66 -12 3 -27 26 -43 64 -13 33 -41 99 -63 148
-37 83 -47 126 -32 140 9 10 9 10 47 -24z m156 12 c0 -21 -28 -37 -42 -23 -14
14 2 42 23 42 12 0 19 -7 19 -19z m-1360 -47 c0 -17 -6 -24 -20 -24 -25 0 -36
25 -20 45 16 20 40 7 40 -21z m1403 -38 c3 -12 -30 -32 -39 -24 -11 12 5 40
21 36 9 -2 17 -7 18 -12z m-1459 -51 c19 -19 10 -45 -15 -45 -25 0 -35 26 -19
45 15 18 15 18 34 0z m1496 -41 c0 -20 -4 -25 -22 -22 -28 4 -33 21 -13 42 21
20 35 12 35 -20z m-1517 -109 c-3 -34 -19 -53 -33 -39 -13 13 8 76 24 71 6 -2
10 -17 9 -32z m1531 -12 c8 -19 -8 -38 -23 -29 -16 10 -13 46 3 46 8 0 17 -8
20 -17z m-10 -99 c23 -9 20 -41 -4 -49 -35 -11 -54 17 -28 43 14 14 12 14 32
6z m-140 -22 c25 -76 -104 -372 -161 -372 -19 0 -16 15 17 78 47 90 89 195 96
243 10 63 36 91 48 51z m-1375 -11 c8 -14 7 -22 -4 -31 -19 -16 -45 -6 -45 18
0 36 33 45 49 13z m146 -38 c27 -134 47 -185 104 -273 56 -85 65 -110 40 -110
-22 0 -90 76 -122 138 -60 115 -94 242 -70 265 16 17 43 6 48 -20z m1360 -73
c0 -28 -4 -36 -21 -38 -11 -2 -27 4 -34 12 -10 13 -9 20 4 42 24 36 51 28 51
-16z m-1486 -29 c16 -28 -13 -51 -36 -28 -18 18 -11 47 11 47 9 0 20 -9 25
-19z m1446 -77 c26 -17 24 -39 -7 -55 -24 -13 -48 4 -48 36 0 38 17 44 55 19z
m-1409 -39 c16 -25 12 -45 -10 -45 -12 0 -36 40 -36 60 0 19 30 9 46 -15z
m1339 -85 c8 -13 -5 -13 -25 0 -13 8 -13 10 2 10 9 0 20 -4 23 -10z m-1277
-51 c-2 -6 -8 -10 -13 -10 -5 0 -11 4 -13 10 -2 6 4 11 13 11 9 0 15 -5 13
-11z m1050 -40 c5 -25 -57 -77 -135 -115 -108 -52 -213 -69 -213 -34 0 18 39
50 61 50 29 0 157 57 204 92 42 30 78 34 83 7z m192 12 c0 -13 -26 -32 -33
-24 -14 13 -6 33 13 33 11 0 20 -4 20 -9z m-1149 -67 c10 -13 10 -17 -1 -24
-19 -12 -40 -1 -40 21 0 23 23 25 41 3z m274 -9 c37 -14 100 -33 139 -41 105
-22 144 -54 91 -74 -32 -12 -175 19 -255 56 -54 25 -100 60 -100 76 0 16 58 8
125 -17z m788 -20 c1 -5 -6 -11 -15 -13 -11 -2 -18 3 -18 13 0 17 30 18 33 0z
m-967 -46 c3 -6 2 -15 -2 -19 -12 -12 -38 5 -30 19 9 14 23 14 32 0z m884 -19
c0 -5 -4 -10 -10 -10 -5 0 -10 5 -10 10 0 6 5 10 10 10 6 0 10 -4 10 -10z
m-793 -66 c8 -21 -13 -42 -28 -27 -13 13 -5 43 11 43 6 0 13 -7 17 -16z m707
7 c10 -16 -5 -41 -24 -41 -20 0 -30 17 -22 38 5 14 38 16 46 3z m-604 -31 c0
-11 -6 -20 -14 -20 -18 0 -29 16 -21 30 11 18 35 11 35 -10z m495 -11 c0 -8
-12 -15 -27 -17 -31 -4 -37 12 -10 27 21 13 37 9 37 -10z m-357 -36 c3 -19 -1
-23 -22 -23 -28 0 -41 14 -32 36 9 24 50 13 54 -13z m192 7 c0 -5 -5 -10 -11
-10 -5 0 -7 5 -4 10 3 6 8 10 11 10 2 0 4 -4 4 -10z m-110 -10 c0 -5 -7 -10
-15 -10 -8 0 -15 5 -15 10 0 6 7 10 15 10 8 0 15 -4 15 -10z"/>
<path d="M5782 1078 c-7 -7 -12 -17 -12 -23 0 -18 -64 -79 -144 -139 -41 -30
-77 -60 -81 -66 -14 -22 -99 -70 -124 -70 -15 0 -49 -14 -78 -30 -58 -33 -82
-65 -63 -84 8 -8 33 1 100 37 49 26 100 47 113 47 13 0 50 16 82 36 80 48 293
221 300 244 10 33 -12 60 -48 60 -18 0 -38 -5 -45 -12z"/>
<path d="M5839 923 c-120 -113 -156 -140 -254 -193 -99 -54 -207 -124 -224
-144 -18 -22 -3 -39 28 -33 22 5 199 98 342 181 158 91 250 189 237 253 -7 37
-37 22 -129 -64z"/>
<path d="M2218 873 c-28 -4 -43 -29 -32 -56 15 -40 119 -40 159 -1 46 46 -16
74 -127 57z"/>
<path d="M5998 857 c-24 -12 -88 -59 -143 -104 -56 -45 -146 -107 -200 -138
-181 -100 -389 -202 -455 -223 -36 -11 -90 -29 -120 -40 -30 -11 -140 -39
-245 -62 -223 -48 -242 -55 -225 -75 21 -25 64 -27 121 -5 52 20 112 35 244
60 139 26 234 52 300 84 39 18 111 45 160 61 50 15 118 42 152 61 34 19 67 34
74 34 7 0 29 11 48 24 20 13 69 45 110 71 81 53 174 125 234 182 67 63 28 112
-55 70z"/>
<path d="M5096 489 c-89 -32 -112 -52 -67 -57 35 -4 148 32 173 55 46 41 5 42
-106 2z"/>
<path d="M4790 396 c-66 -19 -120 -44 -120 -55 0 -16 39 -23 85 -16 49 7 110
43 110 65 0 20 -21 21 -75 6z"/>
<path d="M3878 254 c-5 -4 -8 -16 -8 -27 0 -17 5 -19 50 -15 56 6 69 13 53 29
-13 13 -85 23 -95 13z"/>
<path d="M4223 221 c-125 -21 2 -61 146 -47 74 8 91 17 71 41 -9 11 -32 15
-94 14 -44 -1 -100 -5 -123 -8z"/>
</g>
</svg>
